Raleway-Medium-Italic-OTF.ufo
<glyph name="parenleft" format="1">
  <advance width="278"/>
  <unicode hex="0028"/>
  <outline>
    <contour>
      <point x="42" y="261" type="curve" smooth="yes"/>
      <point x="42" y="163"/>
      <point x="68" y="50"/>
      <point x="107" y="-42" type="curve"/>
      <point x="179" y="-8" type="line"/>
      <point x="145" y="79"/>
      <point x="125" y="186"/>
      <point x="125" y="268" type="curve" smooth="yes"/>
      <point x="125" y="434"/>
      <point x="261" y="626"/>
      <point x="334" y="714" type="curve"/>
      <point x="273" y="744" type="line"/>
      <point x="145" y="581"/>
      <point x="42" y="437"/>
    </contour>
  </outline>
</glyph>
<glyph name="colon" format="1">
  <advance width="198"/>
  <unicode hex="003A"/>
  <outline>
    <contour>
      <point x="157" y="406" type="line"/>
      <point x="181" y="518" type="line"/>
      <point x="108" y="518" type="line"/>
      <point x="84" y="406" type="line"/>
    </contour>
    <contour>
      <point x="71" y="0" type="line"/>
      <point x="95" y="112" type="line"/>
      <point x="22" y="112" type="line"/>
      <point x="-2" y="0" type="line"/>
    </contour>
  </outline>
</glyph>
<glyph name="threequarters" format="1">
  <advance width="825"/>
  <unicode hex="00BE"/>
  <outline>
    <contour>
      <point x="189" y="314" type="curve" smooth="yes"/>
      <point x="282" y="314"/>
      <point x="376" y="361"/>
      <point x="376" y="445" type="curve" smooth="yes"/>
      <point x="376" y="488"/>
      <point x="347" y="523"/>
      <point x="297" y="531" type="curve"/>
      <point x="366" y="545"/>
      <point x="406" y="581"/>
      <point x="406" y="635" type="curve" smooth="yes"/>
      <point x="406" y="690"/>
      <point x="354" y="731"/>
      <point x="276" y="731" type="curve" smooth="yes"/>
      <point x="214" y="731"/>
      <point x="150" y="708"/>
      <point x="117" y="669" type="curve"/>
      <point x="144" y="626" type="line"/>
      <point x="171" y="658"/>
      <point x="214" y="680"/>
      <point x="265" y="680" type="curve" smooth="yes"/>
      <point x="309" y="680"/>
      <point x="346" y="659"/>
      <point x="346" y="625" type="curve" smooth="yes"/>
      <point x="346" y="577"/>
      <point x="290" y="554"/>
      <point x="203" y="554" type="curve" smooth="yes"/>
      <point x="181" y="554" type="line"/>
      <point x="171" y="503" type="line"/>
      <point x="193" y="503" type="line" smooth="yes"/>
      <point x="272" y="503"/>
      <point x="321" y="482"/>
      <point x="321" y="443" type="curve" smooth="yes"/>
      <point x="321" y="399"/>
      <point x="264" y="370"/>
      <point x="200" y="370" type="curve" smooth="yes"/>
      <point x="131" y="370"/>
      <point x="97" y="409"/>
      <point x="97" y="438" type="curve"/>
      <point x="57" y="400" type="line"/>
      <point x="59" y="347"/>
      <point x="110" y="314"/>
    </contour>
    <contour>
      <point x="614" y="0" type="line"/>
      <point x="669" y="0" type="line"/>
      <point x="690" y="100" type="line"/>
      <point x="746" y="100" type="line"/>
      <point x="758" y="154" type="line"/>
      <point x="701" y="154" type="line"/>
      <point x="755" y="406" type="line"/>
      <point x="717" y="406" type="line"/>
      <point x="432" y="153" type="line"/>
      <point x="421" y="100" type="line"/>
      <point x="635" y="100" type="line"/>
    </contour>
    <contour>
      <point x="489" y="154" type="line"/>
      <point x="687" y="334" type="line"/>
      <point x="649" y="154" type="line"/>
    </contour>
    <contour>
      <point x="145" y="-5" type="line"/>
      <point x="477" y="343" type="line"/>
      <point x="811" y="678" type="line"/>
      <point x="776" y="715" type="line"/>
      <point x="449" y="370" type="line"/>
      <point x="111" y="33" type="line"/>
    </contour>
  </outline>
</glyph>
<glyph name="Atilde" format="1">
  <advance width="652"/>
  <unicode hex="00C3"/>
  <outline>
    <contour>
      <point x="-47" y="0" type="line"/>
      <point x="49" y="0" type="line"/>
      <point x="170" y="208" type="line"/>
      <point x="448" y="208" type="line"/>
      <point x="482" y="0" type="line"/>
      <point x="578" y="0" type="line"/>
      <point x="455" y="710" type="line"/>
      <point x="378" y="710" type="line"/>
    </contour>
    <contour>
      <point x="202" y="278" type="line"/>
      <point x="395" y="606" type="line"/>
      <point x="444" y="278" type="line"/>
    </contour>
    <contour>
      <point x="495" y="813" type="curve" smooth="yes"/>
      <point x="577" y="813"/>
      <point x="616" y="901"/>
      <point x="619" y="916" type="curve"/>
      <point x="568" y="916" type="line"/>
      <point x="567" y="912"/>
      <point x="552" y="867"/>
      <point x="504" y="867" type="curve" smooth="yes"/>
      <point x="458" y="867"/>
      <point x="445" y="910"/>
      <point x="391" y="910" type="curve" smooth="yes"/>
      <point x="315" y="910"/>
      <point x="277" y="824"/>
      <point x="273" y="807" type="curve"/>
      <point x="325" y="807" type="line"/>
      <point x="325" y="811"/>
      <point x="339" y="855"/>
      <point x="381" y="855" type="curve" smooth="yes"/>
      <point x="422" y="855"/>
      <point x="438" y="813"/>
    </contour>
  </outline>
</glyph>
<glyph name="Aring" format="1">
  <advance width="652"/>
  <unicode hex="00C5"/>
  <outline>
    <contour>
      <point x="-47" y="0" type="line"/>
      <point x="49" y="0" type="line"/>
      <point x="170" y="208" type="line"/>
      <point x="448" y="208" type="line"/>
      <point x="482" y="0" type="line"/>
      <point x="578" y="0" type="line"/>
      <point x="455" y="710" type="line"/>
      <point x="378" y="710" type="line"/>
    </contour>
    <contour>
      <point x="202" y="278" type="line"/>
      <point x="395" y="606" type="line"/>
      <point x="444" y="278" type="line"/>
    </contour>
    <contour>
      <point x="364" y="834" type="curve" smooth="yes"/>
      <point x="364" y="800"/>
      <point x="389" y="778"/>
      <point x="429" y="778" type="curve" smooth="yes"/>
      <point x="483" y="778"/>
      <point x="524" y="812"/>
      <point x="524" y="860" type="curve" smooth="yes"/>
      <point x="524" y="894"/>
      <point x="500" y="916"/>
      <point x="459" y="916" type="curve" smooth="yes"/>
      <point x="407" y="916"/>
      <point x="364" y="883"/>
    </contour>
    <contour>
      <point x="452" y="885" type="curve" smooth="yes"/>
      <point x="471" y="885"/>
      <point x="484" y="873"/>
      <point x="484" y="854" type="curve" smooth="yes"/>
      <point x="484" y="828"/>
      <point x="458" y="809"/>
      <point x="436" y="809" type="curve" smooth="yes"/>
      <point x="417" y="809"/>
      <point x="405" y="823"/>
      <point x="405" y="840" type="curve" smooth="yes"/>
      <point x="405" y="866"/>
      <point x="428" y="885"/>
    </contour>
  </outline>
</glyph>
<glyph name="Ccedilla" format="1">
  <advance width="649"/>
  <unicode hex="00C7"/>
  <outline>
    <contour>
      <point x="149" y="-163" type="line"/>
      <point x="172" y="-173"/>
      <point x="203" y="-182"/>
      <point x="241" y="-182" type="curve" smooth="yes"/>
      <point x="322" y="-182"/>
      <point x="365" y="-146"/>
      <point x="365" y="-94" type="curve" smooth="yes"/>
      <point x="365" y="-60"/>
      <point x="340" y="-43"/>
      <point x="302" y="-43" type="curve" smooth="yes"/>
      <point x="292" y="-43"/>
      <point x="278" y="-44"/>
      <point x="267" y="-48" type="curve"/>
      <point x="301" y="-5" type="line"/>
      <point x="404" y="-1"/>
      <point x="530" y="57"/>
      <point x="593" y="159" type="curve"/>
      <point x="527" y="200" type="line"/>
      <point x="470" y="112"/>
      <point x="380" y="75"/>
      <point x="310" y="75" type="curve" smooth="yes"/>
      <point x="199" y="75"/>
      <point x="132" y="178"/>
      <point x="132" y="299" type="curve" smooth="yes"/>
      <point x="132" y="450"/>
      <point x="253" y="633"/>
      <point x="426" y="633" type="curve" smooth="yes"/>
      <point x="494" y="633"/>
      <point x="565" y="603"/>
      <point x="585" y="513" type="curve"/>
      <point x="666" y="559" type="line"/>
      <point x="643" y="650"/>
      <point x="567" y="714"/>
      <point x="447" y="714" type="curve" smooth="yes"/>
      <point x="213" y="714"/>
      <point x="41" y="489"/>
      <point x="41" y="294" type="curve" smooth="yes"/>
      <point x="41" y="151"/>
      <point x="119" y="14"/>
      <point x="258" y="-4" type="curve"/>
      <point x="198" y="-88" type="line"/>
      <point x="215" y="-83"/>
      <point x="250" y="-75"/>
      <point x="277" y="-75" type="curve" smooth="yes"/>
      <point x="302" y="-75"/>
      <point x="319" y="-82"/>
      <point x="319" y="-103" type="curve" smooth="yes"/>
      <point x="319" y="-132"/>
      <point x="295" y="-145"/>
      <point x="256" y="-145" type="curve" smooth="yes"/>
      <point x="223" y="-145"/>
      <point x="191" y="-135"/>
      <point x="177" y="-126" type="curve"/>
    </contour>
  </outline>
</glyph>
<glyph name="Ntilde" format="1">
  <advance width="739"/>
  <unicode hex="00D1"/>
  <outline>
    <contour>
      <point x="20" y="0" type="line"/>
      <point x="110" y="0" type="line"/>
      <point x="225" y="542" type="line"/>
      <point x="516" y="0" type="line"/>
      <point x="591" y="0" type="line"/>
      <point x="742" y="709" type="line"/>
      <point x="652" y="709" type="line"/>
      <point x="535" y="157" type="line"/>
      <point x="241" y="710" type="line"/>
      <point x="171" y="710" type="line"/>
    </contour>
    <contour>
      <point x="538" y="813" type="curve" smooth="yes"/>
      <point x="620" y="813"/>
      <point x="659" y="901"/>
      <point x="662" y="916" type="curve"/>
      <point x="611" y="916" type="line"/>
      <point x="610" y="912"/>
      <point x="595" y="867"/>
      <point x="547" y="867" type="curve" smooth="yes"/>
      <point x="501" y="867"/>
      <point x="488" y="910"/>
      <point x="434" y="910" type="curve" smooth="yes"/>
      <point x="358" y="910"/>
      <point x="320" y="824"/>
      <point x="316" y="807" type="curve"/>
      <point x="368" y="807" type="line"/>
      <point x="368" y="811"/>
      <point x="382" y="855"/>
      <point x="424" y="855" type="curve" smooth="yes"/>
      <point x="465" y="855"/>
      <point x="481" y="813"/>
    </contour>
  </outline>
</glyph>
<glyph name="edieresis" format="1">
  <advance width="539"/>
  <unicode hex="00EB"/>
  <outline>
    <contour>
      <point x="310" y="624" type="line"/>
      <point x="332" y="726" type="line"/>
      <point x="258" y="726" type="line"/>
      <point x="236" y="624" type="line"/>
    </contour>
    <contour>
      <point x="467" y="624" type="line"/>
      <point x="488" y="726" type="line"/>
      <point x="415" y="726" type="line"/>
      <point x="393" y="624" type="line"/>
    </contour>
    <contour>
      <point x="228" y="-10" type="curve" smooth="yes"/>
      <point x="326" y="-10"/>
      <point x="423" y="45"/>
      <point x="472" y="122" type="curve"/>
      <point x="401" y="143" type="line"/>
      <point x="368" y="90"/>
      <point x="303" y="56"/>
      <point x="242" y="56" type="curve" smooth="yes"/>
      <point x="153" y="56"/>
      <point x="112" y="128"/>
      <point x="112" y="211" type="curve" smooth="yes"/>
      <point x="112" y="218"/>
      <point x="112" y="226"/>
      <point x="113" y="234" type="curve"/>
      <point x="156" y="230"/>
      <point x="196" y="229"/>
      <point x="228" y="229" type="curve" smooth="yes"/>
      <point x="421" y="229"/>
      <point x="513" y="284"/>
      <point x="513" y="390" type="curve" smooth="yes"/>
      <point x="513" y="483"/>
      <point x="443" y="531"/>
      <point x="341" y="531" type="curve" smooth="yes"/>
      <point x="160" y="531"/>
      <point x="23" y="378"/>
      <point x="23" y="210" type="curve" smooth="yes"/>
      <point x="23" y="87"/>
      <point x="97" y="-10"/>
    </contour>
    <contour>
      <point x="333" y="465" type="curve" smooth="yes"/>
      <point x="394" y="465"/>
      <point x="434" y="442"/>
      <point x="434" y="391" type="curve" smooth="yes"/>
      <point x="434" y="333"/>
      <point x="382" y="290"/>
      <point x="231" y="290" type="curve" smooth="yes"/>
      <point x="200" y="290"/>
      <point x="165" y="291"/>
      <point x="125" y="295" type="curve"/>
      <point x="151" y="381"/>
      <point x="218" y="465"/>
    </contour>
  </outline>
</glyph>
<glyph name="Cdotaccent" format="1">
  <advance width="653"/>
  <unicode hex="010A"/>
  <outline>
    <contour>
      <point x="293" y="-6" type="curve" smooth="yes"/>
      <point x="398" y="-6"/>
      <point x="532" y="53"/>
      <point x="597" y="159" type="curve"/>
      <point x="531" y="200" type="line"/>
      <point x="474" y="112"/>
      <point x="384" y="75"/>
      <point x="314" y="75" type="curve" smooth="yes"/>
      <point x="203" y="75"/>
      <point x="136" y="178"/>
      <point x="136" y="299" type="curve" smooth="yes"/>
      <point x="136" y="450"/>
      <point x="257" y="633"/>
      <point x="430" y="633" type="curve" smooth="yes"/>
      <point x="498" y="633"/>
      <point x="569" y="603"/>
      <point x="589" y="513" type="curve"/>
      <point x="670" y="559" type="line"/>
      <point x="647" y="650"/>
      <point x="571" y="714"/>
      <point x="451" y="714" type="curve" smooth="yes"/>
      <point x="217" y="714"/>
      <point x="45" y="489"/>
      <point x="45" y="294" type="curve" smooth="yes"/>
      <point x="45" y="141"/>
      <point x="135" y="-6"/>
    </contour>
    <contour>
      <point x="521" y="810" type="line"/>
      <point x="543" y="916" type="line"/>
      <point x="464" y="916" type="line"/>
      <point x="441" y="810" type="line"/>
    </contour>
  </outline>
</glyph>
<glyph name="Gbreve" format="1">
  <advance width="686"/>
  <unicode hex="011E"/>
  <outline>
    <contour>
      <point x="496" y="0" type="line"/>
      <point x="572" y="0" type="line"/>
      <point x="647" y="354" type="line"/>
      <point x="427" y="354" type="line"/>
      <point x="412" y="286" type="line"/>
      <point x="557" y="286" type="line"/>
      <point x="536" y="189" type="line"/>
      <point x="461" y="112"/>
      <point x="388" y="76"/>
      <point x="316" y="76" type="curve" smooth="yes"/>
      <point x="206" y="76"/>
      <point x="136" y="175"/>
      <point x="136" y="297" type="curve" smooth="yes"/>
      <point x="136" y="462"/>
      <point x="268" y="634"/>
      <point x="426" y="634" type="curve" smooth="yes"/>
      <point x="508" y="634"/>
      <point x="570" y="594"/>
      <point x="592" y="512" type="curve"/>
      <point x="671" y="560" type="line"/>
      <point x="646" y="652"/>
      <point x="575" y="715"/>
      <point x="445" y="715" type="curve" smooth="yes"/>
      <point x="238" y="715"/>
      <point x="45" y="508"/>
      <point x="45" y="292" type="curve" smooth="yes"/>
      <point x="45" y="137"/>
      <point x="139" y="-5"/>
      <point x="292" y="-5" type="curve" smooth="yes"/>
      <point x="369" y="-5"/>
      <point x="443" y="27"/>
      <point x="516" y="95" type="curve"/>
    </contour>
    <contour>
      <point x="467" y="848" type="curve" smooth="yes"/>
      <point x="442" y="848"/>
      <point x="425" y="871"/>
      <point x="425" y="899" type="curve" smooth="yes"/>
      <point x="425" y="905"/>
      <point x="426" y="910"/>
      <point x="427" y="916" type="curve"/>
      <point x="376" y="916" type="line"/>
      <point x="374" y="907"/>
      <point x="373" y="899"/>
      <point x="373" y="890" type="curve" smooth="yes"/>
      <point x="373" y="840"/>
      <point x="406" y="805"/>
      <point x="458" y="805" type="curve" smooth="yes"/>
      <point x="517" y="805"/>
      <point x="573" y="853"/>
      <point x="586" y="916" type="curve"/>
      <point x="536" y="916" type="line"/>
      <point x="524" y="877"/>
      <point x="494" y="848"/>
    </contour>
  </outline>
</glyph>
<glyph name="Gcommaaccent" format="1">
  <advance width="686"/>
  <unicode hex="0122"/>
  <outline>
    <contour>
      <point x="260" y="-213" type="line"/>
      <point x="306" y="-132" type="line"/>
      <point x="324" y="-48" type="line"/>
      <point x="247" y="-48" type="line"/>
      <point x="229" y="-132" type="line"/>
      <point x="254" y="-132" type="line"/>
      <point x="217" y="-213" type="line"/>
    </contour>
    <contour>
      <point x="496" y="0" type="line"/>
      <point x="572" y="0" type="line"/>
      <point x="647" y="354" type="line"/>
      <point x="427" y="354" type="line"/>
      <point x="412" y="286" type="line"/>
      <point x="557" y="286" type="line"/>
      <point x="536" y="189" type="line"/>
      <point x="461" y="112"/>
      <point x="388" y="76"/>
      <point x="316" y="76" type="curve" smooth="yes"/>
      <point x="206" y="76"/>
      <point x="136" y="175"/>
      <point x="136" y="297" type="curve" smooth="yes"/>
      <point x="136" y="462"/>
      <point x="268" y="634"/>
      <point x="426" y="634" type="curve" smooth="yes"/>
      <point x="508" y="634"/>
      <point x="570" y="594"/>
      <point x="592" y="512" type="curve"/>
      <point x="671" y="560" type="line"/>
      <point x="646" y="652"/>
      <point x="575" y="715"/>
      <point x="445" y="715" type="curve" smooth="yes"/>
      <point x="238" y="715"/>
      <point x="45" y="508"/>
      <point x="45" y="292" type="curve" smooth="yes"/>
      <point x="45" y="137"/>
      <point x="139" y="-5"/>
      <point x="292" y="-5" type="curve" smooth="yes"/>
      <point x="369" y="-5"/>
      <point x="443" y="27"/>
      <point x="516" y="95" type="curve"/>
    </contour>
  </outline>
</glyph>
<glyph name="hbar" format="1">
  <advance width="567"/>
  <unicode hex="0127"/>
  <outline>
    <contour>
      <point x="63" y="601" type="line"/>
      <point x="132" y="601" type="line"/>
      <point x="5" y="0" type="line"/>
      <point x="93" y="0" type="line"/>
      <point x="160" y="315" type="line"/>
      <point x="198" y="394"/>
      <point x="281" y="452"/>
      <point x="344" y="452" type="curve" smooth="yes"/>
      <point x="394" y="452"/>
      <point x="421" y="421"/>
      <point x="421" y="360" type="curve" smooth="yes"/>
      <point x="421" y="340"/>
      <point x="418" y="318"/>
      <point x="413" y="292" type="curve" smooth="yes"/>
      <point x="351" y="0" type="line"/>
      <point x="439" y="0" type="line"/>
      <point x="505" y="312" type="line" smooth="yes"/>
      <point x="512" y="344"/>
      <point x="515" y="374"/>
      <point x="515" y="401" type="curve" smooth="yes"/>
      <point x="515" y="478"/>
      <point x="483" y="531"/>
      <point x="395" y="531" type="curve" smooth="yes"/>
      <point x="316" y="531"/>
      <point x="235" y="485"/>
      <point x="180" y="410" type="curve"/>
      <point x="220" y="601" type="line"/>
      <point x="319" y="601" type="line"/>
      <point x="331" y="657" type="line"/>
      <point x="232" y="657" type="line"/>
      <point x="248" y="730" type="line"/>
      <point x="160" y="730" type="line"/>
      <point x="144" y="657" type="line"/>
      <point x="75" y="657" type="line"/>
    </contour>
  </outline>
</glyph>
<glyph name="Imacron" format="1">
  <advance width="258"/>
  <unicode hex="012A"/>
  <outline>
    <contour>
      <point x="20" y="0" type="line"/>
      <point x="110" y="0" type="line"/>
      <point x="261" y="709" type="line"/>
      <point x="171" y="709" type="line"/>
    </contour>
    <contour>
      <point x="382" y="838" type="line"/>
      <point x="395" y="896" type="line"/>
      <point x="116" y="896" type="line"/>
      <point x="104" y="838" type="line"/>
    </contour>
  </outline>
</glyph>
<glyph name="Ibreve" format="1">
  <advance width="258"/>
  <unicode hex="012C"/>
  <outline>
    <contour>
      <point x="20" y="0" type="line"/>
      <point x="110" y="0" type="line"/>
      <point x="261" y="709" type="line"/>
      <point x="171" y="709" type="line"/>
    </contour>
    <contour>
      <point x="232" y="848" type="curve" smooth="yes"/>
      <point x="207" y="848"/>
      <point x="190" y="871"/>
      <point x="190" y="899" type="curve" smooth="yes"/>
      <point x="190" y="905"/>
      <point x="191" y="910"/>
      <point x="192" y="916" type="curve"/>
      <point x="141" y="916" type="line"/>
      <point x="139" y="907"/>
      <point x="138" y="899"/>
      <point x="138" y="890" type="curve" smooth="yes"/>
      <point x="138" y="840"/>
      <point x="171" y="805"/>
      <point x="223" y="805" type="curve" smooth="yes"/>
      <point x="282" y="805"/>
      <point x="338" y="853"/>
      <point x="351" y="916" type="curve"/>
      <point x="301" y="916" type="line"/>
      <point x="289" y="877"/>
      <point x="259" y="848"/>
    </contour>
  </outline>
</glyph>
<glyph name="dotlessi" format="1">
  <advance width="226"/>
  <unicode hex="0131"/>
  <outline>
    <contour>
      <point x="53" y="522" type="move" name="top"/>
    </contour>
    <contour>
      <point x="5" y="0" type="line"/>
      <point x="93" y="0" type="line"/>
      <point x="204" y="522" type="line"/>
      <point x="116" y="522" type="line"/>
    </contour>
  </outline>
</glyph>
<glyph name="Nacute" format="1">
  <advance width="739"/>
  <unicode hex="0143"/>
  <outline>
    <contour>
      <point x="590" y="916" type="line"/>
      <point x="503" y="916" type="line"/>
      <point x="427" y="815" type="line"/>
      <point x="481" y="795" type="line"/>
    </contour>
    <contour>
      <point x="20" y="0" type="line"/>
      <point x="110" y="0" type="line"/>
      <point x="225" y="542" type="line"/>
      <point x="516" y="0" type="line"/>
      <point x="591" y="0" type="line"/>
      <point x="742" y="709" type="line"/>
      <point x="652" y="709" type="line"/>
      <point x="535" y="157" type="line"/>
      <point x="241" y="710" type="line"/>
      <point x="171" y="710" type="line"/>
    </contour>
  </outline>
</glyph>
<glyph name="obreve" format="1">
  <advance width="578"/>
  <unicode hex="014F"/>
  <outline>
    <contour>
      <point x="222" y="-10" type="curve" smooth="yes"/>
      <point x="395" y="-10"/>
      <point x="539" y="146"/>
      <point x="539" y="312" type="curve" smooth="yes"/>
      <point x="539" y="432"/>
      <point x="465" y="531"/>
      <point x="337" y="531" type="curve" smooth="yes"/>
      <point x="166" y="531"/>
      <point x="22" y="375"/>
      <point x="22" y="208" type="curve" smooth="yes"/>
      <point x="22" y="89"/>
      <point x="94" y="-10"/>
    </contour>
    <contour>
      <point x="239" y="66" type="curve" smooth="yes"/>
      <point x="163" y="66"/>
      <point x="113" y="131"/>
      <point x="113" y="219" type="curve" smooth="yes"/>
      <point x="113" y="345"/>
      <point x="219" y="455"/>
      <point x="321" y="455" type="curve" smooth="yes"/>
      <point x="397" y="455"/>
      <point x="447" y="388"/>
      <point x="447" y="301" type="curve" smooth="yes"/>
      <point x="447" y="174"/>
      <point x="342" y="66"/>
    </contour>
    <contour>
      <point x="359" y="662" type="curve" smooth="yes"/>
      <point x="334" y="662"/>
      <point x="317" y="685"/>
      <point x="317" y="713" type="curve" smooth="yes"/>
      <point x="317" y="719"/>
      <point x="318" y="724"/>
      <point x="319" y="730" type="curve"/>
      <point x="268" y="730" type="line"/>
      <point x="266" y="721"/>
      <point x="265" y="713"/>
      <point x="265" y="704" type="curve" smooth="yes"/>
      <point x="265" y="654"/>
      <point x="298" y="619"/>
      <point x="350" y="619" type="curve" smooth="yes"/>
      <point x="409" y="619"/>
      <point x="465" y="667"/>
      <point x="478" y="730" type="curve"/>
      <point x="428" y="730" type="line"/>
      <point x="416" y="691"/>
      <point x="386" y="662"/>
    </contour>
  </outline>
</glyph>
<glyph name="uni0162" format="1">
  <advance width="585"/>
  <unicode hex="0162"/>
  <outline>
    <contour>
      <point x="182" y="0" type="line"/>
      <point x="213" y="0" type="line"/>
      <point x="150" y="-88" type="line"/>
      <point x="167" y="-83"/>
      <point x="202" y="-75"/>
      <point x="229" y="-75" type="curve" smooth="yes"/>
      <point x="254" y="-75"/>
      <point x="271" y="-82"/>
      <point x="271" y="-103" type="curve" smooth="yes"/>
      <point x="271" y="-132"/>
      <point x="247" y="-145"/>
      <point x="208" y="-145" type="curve" smooth="yes"/>
      <point x="175" y="-145"/>
      <point x="143" y="-135"/>
      <point x="129" y="-126" type="curve"/>
      <point x="101" y="-163" type="line"/>
      <point x="124" y="-173"/>
      <point x="155" y="-182"/>
      <point x="193" y="-182" type="curve" smooth="yes"/>
      <point x="274" y="-182"/>
      <point x="317" y="-146"/>
      <point x="317" y="-94" type="curve" smooth="yes"/>
      <point x="317" y="-60"/>
      <point x="292" y="-43"/>
      <point x="254" y="-43" type="curve" smooth="yes"/>
      <point x="244" y="-43"/>
      <point x="230" y="-44"/>
      <point x="219" y="-48" type="curve"/>
      <point x="258" y="0" type="line"/>
      <point x="272" y="0" type="line"/>
      <point x="406" y="630" type="line"/>
      <point x="637" y="630" type="line"/>
      <point x="654" y="710" type="line"/>
      <point x="102" y="710" type="line"/>
      <point x="85" y="630" type="line"/>
      <point x="316" y="630" type="line"/>
    </contour>
  </outline>
</glyph>
<glyph name="Oogonek" format="1">
  <advance width="720"/>
  <unicode hex="01EA"/>
  <outline>
    <contour>
      <point x="237" y="-181" type="curve"/>
      <point x="268" y="-135" type="line"/>
      <point x="238" y="-132"/>
      <point x="223" y="-119"/>
      <point x="223" y="-99" type="curve" smooth="yes"/>
      <point x="223" y="-70"/>
      <point x="248" y="-43"/>
      <point x="313" y="-4" type="curve"/>
      <point x="515" y="7"/>
      <point x="699" y="211"/>
      <point x="699" y="420" type="curve" smooth="yes"/>
      <point x="699" y="571"/>
      <point x="611" y="715"/>
      <point x="450" y="715" type="curve" smooth="yes"/>
      <point x="241" y="715"/>
      <point x="44" y="505"/>
      <point x="44" y="288" type="curve" smooth="yes"/>
      <point x="44" y="145"/>
      <point x="122" y="14"/>
      <point x="262" y="-3" type="curve"/>
      <point x="198" y="-42"/>
      <point x="169" y="-78"/>
      <point x="169" y="-116" type="curve" smooth="yes"/>
      <point x="169" y="-147"/>
      <point x="192" y="-172"/>
    </contour>
    <contour>
      <point x="313" y="76" type="curve" smooth="yes"/>
      <point x="198" y="76"/>
      <point x="136" y="178"/>
      <point x="136" y="296" type="curve" smooth="yes"/>
      <point x="136" y="456"/>
      <point x="267" y="633"/>
      <point x="431" y="633" type="curve" smooth="yes"/>
      <point x="544" y="633"/>
      <point x="607" y="531"/>
      <point x="607" y="413" type="curve" smooth="yes"/>
      <point x="607" y="255"/>
      <point x="477" y="76"/>
    </contour>
  </outline>
</glyph>
<glyph name="Ainvertedbreve" format="1">
  <advance width="652"/>
  <unicode hex="0202"/>
  <outline>
    <contour>
      <point x="-47" y="0" type="line"/>
      <point x="49" y="0" type="line"/>
      <point x="170" y="208" type="line"/>
      <point x="448" y="208" type="line"/>
      <point x="482" y="0" type="line"/>
      <point x="578" y="0" type="line"/>
      <point x="455" y="710" type="line"/>
      <point x="378" y="710" type="line"/>
    </contour>
    <contour>
      <point x="202" y="278" type="line"/>
      <point x="395" y="606" type="line"/>
      <point x="444" y="278" type="line"/>
    </contour>
    <contour>
      <point x="328" y="805" type="curve"/>
      <point x="378" y="805" type="line"/>
      <point x="387" y="843"/>
      <point x="407" y="873"/>
      <point x="449" y="873" type="curve" smooth="yes"/>
      <point x="478" y="873"/>
      <point x="490" y="859"/>
      <point x="490" y="830" type="curve" smooth="yes"/>
      <point x="490" y="822"/>
      <point x="489" y="814"/>
      <point x="488" y="805" type="curve"/>
      <point x="537" y="805" type="line"/>
      <point x="539" y="813"/>
      <point x="540" y="821"/>
      <point x="540" y="829" type="curve" smooth="yes"/>
      <point x="540" y="877"/>
      <point x="506" y="916"/>
      <point x="455" y="916" type="curve" smooth="yes"/>
      <point x="397" y="916"/>
      <point x="341" y="868"/>
    </contour>
  </outline>
</glyph>
<glyph name="rdblgrave" format="1">
  <advance width="354"/>
  <unicode hex="0211"/>
  <outline>
    <contour>
      <point x="5" y="0" type="line"/>
      <point x="93" y="0" type="line"/>
      <point x="161" y="322" type="line"/>
      <point x="204" y="398"/>
      <point x="282" y="443"/>
      <point x="365" y="445" type="curve"/>
      <point x="381" y="521" type="line"/>
      <point x="375" y="522"/>
      <point x="367" y="523"/>
      <point x="355" y="523" type="curve" smooth="yes"/>
      <point x="291" y="523"/>
      <point x="222" y="473"/>
      <point x="172" y="401" type="curve"/>
      <point x="198" y="522" type="line"/>
      <point x="116" y="522" type="line"/>
    </contour>
    <contour>
      <point x="323" y="609" type="line"/>
      <point x="373" y="629" type="line"/>
      <point x="343" y="730" type="line"/>
      <point x="269" y="730" type="line"/>
    </contour>
    <contour>
      <point x="191" y="609" type="line"/>
      <point x="241" y="629" type="line"/>
      <point x="212" y="730" type="line"/>
      <point x="137" y="730" type="line"/>
    </contour>
  </outline>
</glyph>
<glyph name="Uinvertedbreve" format="1">
  <advance width="724"/>
  <unicode hex="0216"/>
  <outline>
    <contour>
      <point x="298" y="-5" type="curve" smooth="yes"/>
      <point x="505" y="-5"/>
      <point x="620" y="159"/>
      <point x="661" y="351" type="curve" smooth="yes"/>
      <point x="737" y="710" type="line"/>
      <point x="647" y="710" type="line"/>
      <point x="571" y="351" type="line" smooth="yes"/>
      <point x="542" y="215"/>
      <point x="468" y="76"/>
      <point x="314" y="76" type="curve" smooth="yes"/>
      <point x="201" y="76"/>
      <point x="163" y="151"/>
      <point x="163" y="247" type="curve" smooth="yes"/>
      <point x="163" y="280"/>
      <point x="167" y="315"/>
      <point x="175" y="351" type="curve" smooth="yes"/>
      <point x="251" y="710" type="line"/>
      <point x="161" y="710" type="line"/>
      <point x="85" y="351" type="line" smooth="yes"/>
      <point x="76" y="310"/>
      <point x="71" y="270"/>
      <point x="71" y="232" type="curve" smooth="yes"/>
      <point x="71" y="100"/>
      <point x="131" y="-5"/>
    </contour>
    <contour>
      <point x="365" y="805" type="curve"/>
      <point x="415" y="805" type="line"/>
      <point x="424" y="843"/>
      <point x="444" y="873"/>
      <point x="486" y="873" type="curve" smooth="yes"/>
      <point x="515" y="873"/>
      <point x="527" y="859"/>
      <point x="527" y="830" type="curve" smooth="yes"/>
      <point x="527" y="822"/>
      <point x="526" y="814"/>
      <point x="525" y="805" type="curve"/>
      <point x="574" y="805" type="line"/>
      <point x="576" y="813"/>
      <point x="577" y="821"/>
      <point x="577" y="829" type="curve" smooth="yes"/>
      <point x="577" y="877"/>
      <point x="543" y="916"/>
      <point x="492" y="916" type="curve" smooth="yes"/>
      <point x="434" y="916"/>
      <point x="378" y="868"/>
    </contour>
  </outline>
</glyph>
<glyph name="Etilde" format="1">
  <advance width="580"/>
  <unicode hex="1EBC"/>
  <outline>
    <contour>
      <point x="20" y="0" type="line"/>
      <point x="479" y="0" type="line"/>
      <point x="496" y="80" type="line"/>
      <point x="127" y="80" type="line"/>
      <point x="179" y="325" type="line"/>
      <point x="492" y="325" type="line"/>
      <point x="508" y="400" type="line"/>
      <point x="195" y="400" type="line"/>
      <point x="244" y="630" type="line"/>
      <point x="604" y="630" type="line"/>
      <point x="621" y="710" type="line"/>
      <point x="171" y="710" type="line"/>
    </contour>
    <contour>
      <point x="473" y="813" type="curve" smooth="yes"/>
      <point x="555" y="813"/>
      <point x="594" y="901"/>
      <point x="597" y="916" type="curve"/>
      <point x="546" y="916" type="line"/>
      <point x="545" y="912"/>
      <point x="530" y="867"/>
      <point x="482" y="867" type="curve" smooth="yes"/>
      <point x="436" y="867"/>
      <point x="423" y="910"/>
      <point x="369" y="910" type="curve" smooth="yes"/>
      <point x="293" y="910"/>
      <point x="255" y="824"/>
      <point x="251" y="807" type="curve"/>
      <point x="303" y="807" type="line"/>
      <point x="303" y="811"/>
      <point x="317" y="855"/>
      <point x="359" y="855" type="curve" smooth="yes"/>
      <point x="400" y="855"/>
      <point x="416" y="813"/>
    </contour>
  </outline>
</glyph>
<glyph name="etilde" format="1">
  <advance width="539"/>
  <unicode hex="1EBD"/>
  <outline>
    <contour>
      <point x="228" y="-10" type="curve" smooth="yes"/>
      <point x="326" y="-10"/>
      <point x="423" y="45"/>
      <point x="472" y="122" type="curve"/>
      <point x="401" y="143" type="line"/>
      <point x="368" y="90"/>
      <point x="303" y="56"/>
      <point x="242" y="56" type="curve" smooth="yes"/>
      <point x="153" y="56"/>
      <point x="112" y="128"/>
      <point x="112" y="211" type="curve" smooth="yes"/>
      <point x="112" y="218"/>
      <point x="112" y="226"/>
      <point x="113" y="234" type="curve"/>
      <point x="156" y="230"/>
      <point x="196" y="229"/>
      <point x="228" y="229" type="curve" smooth="yes"/>
      <point x="421" y="229"/>
      <point x="513" y="284"/>
      <point x="513" y="390" type="curve" smooth="yes"/>
      <point x="513" y="483"/>
      <point x="443" y="531"/>
      <point x="341" y="531" type="curve" smooth="yes"/>
      <point x="160" y="531"/>
      <point x="23" y="378"/>
      <point x="23" y="210" type="curve" smooth="yes"/>
      <point x="23" y="87"/>
      <point x="97" y="-10"/>
    </contour>
    <contour>
      <point x="333" y="465" type="curve" smooth="yes"/>
      <point x="394" y="465"/>
      <point x="434" y="442"/>
      <point x="434" y="391" type="curve" smooth="yes"/>
      <point x="434" y="333"/>
      <point x="382" y="290"/>
      <point x="231" y="290" type="curve" smooth="yes"/>
      <point x="200" y="290"/>
      <point x="165" y="291"/>
      <point x="125" y="295" type="curve"/>
      <point x="151" y="381"/>
      <point x="218" y="465"/>
    </contour>
    <contour>
      <point x="410" y="627" type="curve" smooth="yes"/>
      <point x="492" y="627"/>
      <point x="531" y="715"/>
      <point x="534" y="730" type="curve"/>
      <point x="483" y="730" type="line"/>
      <point x="482" y="726"/>
      <point x="467" y="681"/>
      <point x="419" y="681" type="curve" smooth="yes"/>
      <point x="373" y="681"/>
      <point x="360" y="724"/>
      <point x="306" y="724" type="curve" smooth="yes"/>
      <point x="230" y="724"/>
      <point x="192" y="638"/>
      <point x="188" y="621" type="curve"/>
      <point x="240" y="621" type="line"/>
      <point x="240" y="625"/>
      <point x="254" y="669"/>
      <point x="296" y="669" type="curve" smooth="yes"/>
      <point x="337" y="669"/>
      <point x="353" y="627"/>
    </contour>
  </outline>
</glyph>
<glyph name="Ytilde" format="1">
  <advance width="612"/>
  <unicode hex="1EF8"/>
  <outline>
    <contour>
      <point x="192" y="0" type="line"/>
      <point x="282" y="0" type="line"/>
      <point x="337" y="259" type="line"/>
      <point x="689" y="710" type="line"/>
      <point x="591" y="710" type="line"/>
      <point x="310" y="340" type="line"/>
      <point x="188" y="710" type="line"/>
      <point x="89" y="710" type="line"/>
      <point x="248" y="261" type="line"/>
    </contour>
    <contour>
      <point x="457" y="813" type="curve" smooth="yes"/>
      <point x="539" y="813"/>
      <point x="578" y="901"/>
      <point x="581" y="916" type="curve"/>
      <point x="530" y="916" type="line"/>
      <point x="529" y="912"/>
      <point x="514" y="867"/>
      <point x="466" y="867" type="curve" smooth="yes"/>
      <point x="420" y="867"/>
      <point x="407" y="910"/>
      <point x="353" y="910" type="curve" smooth="yes"/>
      <point x="277" y="910"/>
      <point x="239" y="824"/>
      <point x="235" y="807" type="curve"/>
      <point x="287" y="807" type="line"/>
      <point x="287" y="811"/>
      <point x="301" y="855"/>
      <point x="343" y="855" type="curve" smooth="yes"/>
      <point x="384" y="855"/>
      <point x="400" y="813"/>
    </contour>
  </outline>
</glyph>
<glyph name="quoteright" format="1">
  <advance width="200"/>
  <unicode hex="2019"/>
  <outline>
    <contour>
      <point x="155" y="501" type="line"/>
      <point x="209" y="616" type="line"/>
      <point x="233" y="730" type="line"/>
      <point x="149" y="730" type="line"/>
      <point x="125" y="616" type="line"/>
      <point x="154" y="616" type="line"/>
      <point x="111" y="501" type="line"/>
    </contour>
  </outline>
</glyph>
<glyph name="uni20B9" format="1">
  <advance width="478"/>
  <unicode hex="20B9"/>
  <outline>
    <contour>
      <point x="501" y="589" type="line"/>
      <point x="380" y="589" type="line"/>
      <point x="372" y="615"/>
      <point x="359" y="638"/>
      <point x="342" y="658" type="curve"/>
      <point x="516" y="658" type="line"/>
      <point x="527" y="710" type="line"/>
      <point x="125" y="710" type="line"/>
      <point x="107" y="630" type="line"/>
      <point x="206" y="630" type="line" smooth="yes"/>
      <point x="235" y="630"/>
      <point x="259" y="614"/>
      <point x="275" y="589" type="curve"/>
      <point x="99" y="589" type="line"/>
      <point x="88" y="537" type="line"/>
      <point x="295" y="537" type="line"/>
      <point x="296" y="529"/>
      <point x="297" y="520"/>
      <point x="297" y="512" type="curve" smooth="yes"/>
      <point x="297" y="425"/>
      <point x="229" y="335"/>
      <point x="148" y="335" type="curve" smooth="yes"/>
      <point x="72" y="335" type="line"/>
      <point x="203" y="0" type="line"/>
      <point x="305" y="0" type="line"/>
      <point x="199" y="272" type="line"/>
      <point x="306" y="299"/>
      <point x="390" y="411"/>
      <point x="390" y="522" type="curve" smooth="yes"/>
      <point x="390" y="527"/>
      <point x="390" y="532"/>
      <point x="389" y="537" type="curve"/>
      <point x="490" y="537" type="line"/>
    </contour>
  </outline>
</glyph>
<glyph name="twothirds" format="1">
  <advance width="863"/>
  <unicode hex="2154"/>
  <outline>
    <contour>
      <point x="600" y="-5" type="curve" smooth="yes"/>
      <point x="693" y="-5"/>
      <point x="787" y="41"/>
      <point x="787" y="125" type="curve" smooth="yes"/>
      <point x="787" y="168"/>
      <point x="758" y="203"/>
      <point x="708" y="211" type="curve"/>
      <point x="777" y="225"/>
      <point x="817" y="261"/>
      <point x="817" y="315" type="curve" smooth="yes"/>
      <point x="817" y="370"/>
      <point x="765" y="411"/>
      <point x="686" y="411" type="curve" smooth="yes"/>
      <point x="625" y="411"/>
      <point x="561" y="388"/>
      <point x="528" y="349" type="curve"/>
      <point x="555" y="306" type="line"/>
      <point x="582" y="338"/>
      <point x="624" y="360"/>
      <point x="676" y="360" type="curve" smooth="yes"/>
      <point x="719" y="360"/>
      <point x="757" y="339"/>
      <point x="757" y="305" type="curve" smooth="yes"/>
      <point x="757" y="257"/>
      <point x="700" y="234"/>
      <point x="614" y="234" type="curve" smooth="yes"/>
      <point x="592" y="234" type="line"/>
      <point x="582" y="184" type="line"/>
      <point x="604" y="184" type="line" smooth="yes"/>
      <point x="684" y="184"/>
      <point x="731" y="162"/>
      <point x="731" y="123" type="curve" smooth="yes"/>
      <point x="731" y="79"/>
      <point x="675" y="50"/>
      <point x="611" y="50" type="curve" smooth="yes"/>
      <point x="542" y="50"/>
      <point x="507" y="90"/>
      <point x="507" y="118" type="curve"/>
      <point x="468" y="81" type="line"/>
      <point x="469" y="27"/>
      <point x="521" y="-5"/>
    </contour>
    <contour>
      <point x="338" y="320" type="line"/>
      <point x="350" y="374" type="line"/>
      <point x="139" y="374" type="line"/>
      <point x="147" y="409"/>
      <point x="173" y="454"/>
      <point x="252" y="480" type="curve" smooth="yes"/>
      <point x="358" y="516"/>
      <point x="407" y="555"/>
      <point x="407" y="632" type="curve" smooth="yes"/>
      <point x="407" y="690"/>
      <point x="369" y="731"/>
      <point x="290" y="731" type="curve" smooth="yes"/>
      <point x="199" y="731"/>
      <point x="134" y="681"/>
      <point x="119" y="663" type="curve"/>
      <point x="145" y="624" type="line"/>
      <point x="169" y="646"/>
      <point x="213" y="677"/>
      <point x="271" y="677" type="curve" smooth="yes"/>
      <point x="322" y="677"/>
      <point x="347" y="653"/>
      <point x="347" y="621" type="curve" smooth="yes"/>
      <point x="347" y="553"/>
      <point x="268" y="535"/>
      <point x="200" y="508" type="curve" smooth="yes"/>
      <point x="111" y="473"/>
      <point x="66" y="425"/>
      <point x="45" y="320" type="curve"/>
    </contour>
    <contour>
      <point x="136" y="-5" type="line"/>
      <point x="468" y="343" type="line"/>
      <point x="802" y="678" type="line"/>
      <point x="767" y="715" type="line"/>
      <point x="440" y="370" type="line"/>
      <point x="102" y="33" type="line"/>
    </contour>
  </outline>
</glyph>
<glyph name="threeeighths" format="1">
  <advance width="854"/>
  <unicode hex="215C"/>
  <outline>
    <contour>
      <point x="191" y="314" type="curve" smooth="yes"/>
      <point x="284" y="314"/>
      <point x="378" y="361"/>
      <point x="378" y="445" type="curve" smooth="yes"/>
      <point x="378" y="488"/>
      <point x="349" y="523"/>
      <point x="299" y="531" type="curve"/>
      <point x="368" y="545"/>
      <point x="408" y="581"/>
      <point x="408" y="635" type="curve" smooth="yes"/>
      <point x="408" y="690"/>
      <point x="356" y="731"/>
      <point x="278" y="731" type="curve" smooth="yes"/>
      <point x="216" y="731"/>
      <point x="152" y="708"/>
      <point x="119" y="669" type="curve"/>
      <point x="146" y="626" type="line"/>
      <point x="173" y="658"/>
      <point x="216" y="680"/>
      <point x="267" y="680" type="curve" smooth="yes"/>
      <point x="311" y="680"/>
      <point x="348" y="659"/>
      <point x="348" y="625" type="curve" smooth="yes"/>
      <point x="348" y="577"/>
      <point x="292" y="554"/>
      <point x="205" y="554" type="curve" smooth="yes"/>
      <point x="183" y="554" type="line"/>
      <point x="173" y="503" type="line"/>
      <point x="195" y="503" type="line" smooth="yes"/>
      <point x="274" y="503"/>
      <point x="323" y="482"/>
      <point x="323" y="443" type="curve" smooth="yes"/>
      <point x="323" y="399"/>
      <point x="266" y="370"/>
      <point x="202" y="370" type="curve" smooth="yes"/>
      <point x="133" y="370"/>
      <point x="99" y="409"/>
      <point x="99" y="438" type="curve"/>
      <point x="59" y="400" type="line"/>
      <point x="61" y="347"/>
      <point x="112" y="314"/>
    </contour>
    <contour>
      <point x="591" y="-5" type="curve" smooth="yes"/>
      <point x="686" y="-5"/>
      <point x="779" y="52"/>
      <point x="779" y="131" type="curve" smooth="yes"/>
      <point x="779" y="172"/>
      <point x="751" y="202"/>
      <point x="712" y="218" type="curve"/>
      <point x="761" y="234"/>
      <point x="803" y="267"/>
      <point x="803" y="315" type="curve" smooth="yes"/>
      <point x="803" y="371"/>
      <point x="742" y="406"/>
      <point x="679" y="406" type="curve" smooth="yes"/>
      <point x="604" y="406"/>
      <point x="512" y="359"/>
      <point x="512" y="288" type="curve" smooth="yes"/>
      <point x="512" y="254"/>
      <point x="536" y="230"/>
      <point x="566" y="218" type="curve"/>
      <point x="512" y="199"/>
      <point x="457" y="162"/>
      <point x="457" y="100" type="curve" smooth="yes"/>
      <point x="457" y="42"/>
      <point x="510" y="-5"/>
    </contour>
    <contour>
      <point x="605" y="50" type="curve" smooth="yes"/>
      <point x="560" y="50"/>
      <point x="514" y="73"/>
      <point x="514" y="111" type="curve" smooth="yes"/>
      <point x="514" y="160"/>
      <point x="577" y="193"/>
      <point x="634" y="193" type="curve" smooth="yes"/>
      <point x="679" y="193"/>
      <point x="723" y="169"/>
      <point x="723" y="130" type="curve" smooth="yes"/>
      <point x="723" y="82"/>
      <point x="660" y="50"/>
    </contour>
    <contour>
      <point x="644" y="238" type="curve" smooth="yes"/>
      <point x="606" y="238"/>
      <point x="567" y="257"/>
      <point x="567" y="288" type="curve" smooth="yes"/>
      <point x="567" y="328"/>
      <point x="617" y="353"/>
      <point x="668" y="353" type="curve" smooth="yes"/>
      <point x="709" y="353"/>
      <point x="746" y="334"/>
      <point x="746" y="303" type="curve" smooth="yes"/>
      <point x="746" y="263"/>
      <point x="689" y="238"/>
    </contour>
    <contour>
      <point x="120" y="-5" type="line"/>
      <point x="452" y="343" type="line"/>
      <point x="786" y="678" type="line"/>
      <point x="751" y="715" type="line"/>
      <point x="424" y="370" type="line"/>
      <point x="86" y="33" type="line"/>
    </contour>
  </outline>
</glyph>
<glyph name="seveneighths" format="1">
  <advance width="835"/>
  <unicode hex="215E"/>
  <outline>
    <contour>
      <point x="573" y="-5" type="curve" smooth="yes"/>
      <point x="668" y="-5"/>
      <point x="761" y="52"/>
      <point x="761" y="131" type="curve" smooth="yes"/>
      <point x="761" y="172"/>
      <point x="733" y="202"/>
      <point x="694" y="218" type="curve"/>
      <point x="743" y="234"/>
      <point x="785" y="267"/>
      <point x="785" y="315" type="curve" smooth="yes"/>
      <point x="785" y="371"/>
      <point x="724" y="406"/>
      <point x="661" y="406" type="curve" smooth="yes"/>
      <point x="586" y="406"/>
      <point x="494" y="359"/>
      <point x="494" y="288" type="curve" smooth="yes"/>
      <point x="494" y="254"/>
      <point x="518" y="230"/>
      <point x="548" y="218" type="curve"/>
      <point x="494" y="199"/>
      <point x="439" y="162"/>
      <point x="439" y="100" type="curve" smooth="yes"/>
      <point x="439" y="42"/>
      <point x="492" y="-5"/>
    </contour>
    <contour>
      <point x="587" y="50" type="curve" smooth="yes"/>
      <point x="542" y="50"/>
      <point x="496" y="73"/>
      <point x="496" y="111" type="curve" smooth="yes"/>
      <point x="496" y="160"/>
      <point x="559" y="193"/>
      <point x="616" y="193" type="curve" smooth="yes"/>
      <point x="661" y="193"/>
      <point x="705" y="169"/>
      <point x="705" y="130" type="curve" smooth="yes"/>
      <point x="705" y="82"/>
      <point x="642" y="50"/>
    </contour>
    <contour>
      <point x="626" y="238" type="curve" smooth="yes"/>
      <point x="588" y="238"/>
      <point x="549" y="257"/>
      <point x="549" y="288" type="curve" smooth="yes"/>
      <point x="549" y="328"/>
      <point x="599" y="353"/>
      <point x="650" y="353" type="curve" smooth="yes"/>
      <point x="691" y="353"/>
      <point x="728" y="334"/>
      <point x="728" y="303" type="curve" smooth="yes"/>
      <point x="728" y="263"/>
      <point x="671" y="238"/>
    </contour>
    <contour>
      <point x="50" y="-5" type="line"/>
      <point x="382" y="343" type="line"/>
      <point x="716" y="678" type="line"/>
      <point x="681" y="715" type="line"/>
      <point x="354" y="370" type="line"/>
      <point x="16" y="33" type="line"/>
    </contour>
    <contour>
      <point x="74" y="325" type="line"/>
      <point x="136" y="325" type="line"/>
      <point x="450" y="730" type="line"/>
      <point x="130" y="730" type="line"/>
      <point x="119" y="675" type="line"/>
      <point x="352" y="675" type="line"/>
    </contour>
  </outline>
</glyph>
<glyph name="N.sc" format="1">
  <advance width="644"/>
  <outline>
    <contour>
      <point x="334" y="707" type="move" name="top"/>
    </contour>
    <contour>
      <point x="335" y="0" type="move" name="bottom"/>
    </contour>
    <contour>
      <point x="14" y="0" type="line"/>
      <point x="94" y="0" type="line"/>
      <point x="179" y="402" type="line"/>
      <point x="436" y="0" type="line"/>
      <point x="503" y="0" type="line"/>
      <point x="620" y="551" type="line"/>
      <point x="540" y="551" type="line"/>
      <point x="453" y="141" type="line"/>
      <point x="193" y="551" type="line"/>
      <point x="131" y="551" type="line"/>
    </contour>
  </outline>
</glyph>
<glyph name="Q.sc" format="1">
  <advance width="624"/>
  <outline>
    <contour>
      <point x="440" y="0" type="line"/>
      <point x="518" y="0" type="line"/>
      <point x="463" y="80" type="line"/>
      <point x="536" y="142"/>
      <point x="584" y="230"/>
      <point x="584" y="321" type="curve" smooth="yes"/>
      <point x="584" y="441"/>
      <point x="507" y="555"/>
      <point x="367" y="555" type="curve" smooth="yes"/>
      <point x="191" y="555"/>
      <point x="29" y="394"/>
      <point x="29" y="228" type="curve" smooth="yes"/>
      <point x="29" y="107"/>
      <point x="108" y="-4"/>
      <point x="247" y="-4" type="curve" smooth="yes"/>
      <point x="305" y="-4"/>
      <point x="361" y="13"/>
      <point x="411" y="42" type="curve"/>
    </contour>
    <contour>
      <point x="264" y="68" type="curve" smooth="yes"/>
      <point x="165" y="68"/>
      <point x="111" y="147"/>
      <point x="111" y="236" type="curve" smooth="yes"/>
      <point x="111" y="353"/>
      <point x="216" y="483"/>
      <point x="351" y="483" type="curve" smooth="yes"/>
      <point x="448" y="483"/>
      <point x="502" y="404"/>
      <point x="502" y="315" type="curve" smooth="yes"/>
      <point x="502" y="253"/>
      <point x="472" y="186"/>
      <point x="424" y="138" type="curve"/>
      <point x="391" y="187" type="line"/>
      <point x="312" y="187" type="line"/>
      <point x="373" y="98" type="line"/>
      <point x="340" y="79"/>
      <point x="303" y="68"/>
    </contour>
  </outline>
</glyph>
<glyph name="six.numerator" format="1">
  <advance width="399"/>
  <outline>
    <contour>
      <point x="403" y="477" type="curve" smooth="yes"/>
      <point x="403" y="542"/>
      <point x="350" y="592"/>
      <point x="270" y="592" type="curve" smooth="yes"/>
      <point x="223" y="592"/>
      <point x="169" y="570"/>
      <point x="143" y="534" type="curve"/>
      <point x="163" y="625"/>
      <point x="221" y="678"/>
      <point x="290" y="678" type="curve" smooth="yes"/>
      <point x="335" y="678"/>
      <point x="371" y="656"/>
      <point x="382" y="624" type="curve"/>
      <point x="423" y="661" type="line"/>
      <point x="406" y="705"/>
      <point x="360" y="730"/>
      <point x="303" y="730" type="curve" smooth="yes"/>
      <point x="169" y="730"/>
      <point x="77" y="608"/>
      <point x="77" y="452" type="curve" smooth="yes"/>
      <point x="77" y="367"/>
      <point x="126" y="315"/>
      <point x="207" y="315" type="curve" smooth="yes"/>
      <point x="310" y="315"/>
      <point x="403" y="389"/>
    </contour>
    <contour>
      <point x="220" y="366" type="curve" smooth="yes"/>
      <point x="167" y="366"/>
      <point x="128" y="401"/>
      <point x="128" y="444" type="curve" smooth="yes"/>
      <point x="128" y="497"/>
      <point x="190" y="544"/>
      <point x="257" y="544" type="curve" smooth="yes"/>
      <point x="311" y="544"/>
      <point x="349" y="510"/>
      <point x="349" y="467" type="curve" smooth="yes"/>
      <point x="349" y="414"/>
      <point x="285" y="366"/>
    </contour>
  </outline>
</glyph>
